<mxfile host="app.diagrams.net" agent="Mozilla/5.0 (Macintosh; Intel Mac OS X 10_15_7) AppleWebKit/537.36 (KHTML, like Gecko) Chrome/127.0.0.0 Safari/537.36" version="24.7.5">
  <diagram name="Страница — 1" id="bgHcmDvr88Ptj5gmS6nG">
    <mxGraphModel dx="5908" dy="3237" grid="1" gridSize="10" guides="1" tooltips="1" connect="1" arrows="1" fold="1" page="1" pageScale="1" pageWidth="827" pageHeight="1169" math="0" shadow="0">
      <root>
        <mxCell id="0" />
        <mxCell id="1" parent="0" />
        <mxCell id="x_8Lw2dfnf2eLFfUHSlG-1" value="Тегирование.&amp;nbsp;&lt;div&gt;Затронутые объекты помечаются флагом&amp;nbsp;&lt;span style=&quot;text-wrap: nowrap;&quot;&gt;&quot;Было обновлено&quot;&lt;/span&gt;&lt;/div&gt;" style="rounded=0;whiteSpace=wrap;html=1;" vertex="1" parent="1">
          <mxGeometry x="160" y="200" width="480" height="60" as="geometry" />
        </mxCell>
        <mxCell id="x_8Lw2dfnf2eLFfUHSlG-2" value="Процесс снятия галки" style="rounded=0;whiteSpace=wrap;html=1;" vertex="1" parent="1">
          <mxGeometry x="160" y="400" width="480" height="60" as="geometry" />
        </mxCell>
        <mxCell id="x_8Lw2dfnf2eLFfUHSlG-3" value="Сквизинг" style="rounded=0;whiteSpace=wrap;html=1;" vertex="1" parent="1">
          <mxGeometry x="160" y="300" width="220" height="60" as="geometry" />
        </mxCell>
        <mxCell id="x_8Lw2dfnf2eLFfUHSlG-4" value="ACL" style="rounded=0;whiteSpace=wrap;html=1;" vertex="1" parent="1">
          <mxGeometry x="420" y="300" width="220" height="60" as="geometry" />
        </mxCell>
        <mxCell id="x_8Lw2dfnf2eLFfUHSlG-5" value="" style="shape=flexArrow;endArrow=classic;html=1;rounded=0;" edge="1" parent="1" source="x_8Lw2dfnf2eLFfUHSlG-1" target="x_8Lw2dfnf2eLFfUHSlG-3">
          <mxGeometry width="50" height="50" relative="1" as="geometry">
            <mxPoint x="70" y="330" as="sourcePoint" />
            <mxPoint x="120" y="280" as="targetPoint" />
          </mxGeometry>
        </mxCell>
        <mxCell id="x_8Lw2dfnf2eLFfUHSlG-6" value="" style="shape=flexArrow;endArrow=classic;html=1;rounded=0;" edge="1" parent="1" source="x_8Lw2dfnf2eLFfUHSlG-1" target="x_8Lw2dfnf2eLFfUHSlG-4">
          <mxGeometry width="50" height="50" relative="1" as="geometry">
            <mxPoint x="371" y="270" as="sourcePoint" />
            <mxPoint x="319" y="310" as="targetPoint" />
          </mxGeometry>
        </mxCell>
        <mxCell id="x_8Lw2dfnf2eLFfUHSlG-7" value="" style="shape=flexArrow;endArrow=classic;html=1;rounded=0;" edge="1" parent="1" source="x_8Lw2dfnf2eLFfUHSlG-4" target="x_8Lw2dfnf2eLFfUHSlG-2">
          <mxGeometry width="50" height="50" relative="1" as="geometry">
            <mxPoint x="381" y="280" as="sourcePoint" />
            <mxPoint x="329" y="320" as="targetPoint" />
          </mxGeometry>
        </mxCell>
        <mxCell id="x_8Lw2dfnf2eLFfUHSlG-8" value="" style="shape=flexArrow;endArrow=classic;html=1;rounded=0;" edge="1" parent="1" source="x_8Lw2dfnf2eLFfUHSlG-3" target="x_8Lw2dfnf2eLFfUHSlG-2">
          <mxGeometry width="50" height="50" relative="1" as="geometry">
            <mxPoint x="391" y="290" as="sourcePoint" />
            <mxPoint x="339" y="330" as="targetPoint" />
          </mxGeometry>
        </mxCell>
        <mxCell id="x_8Lw2dfnf2eLFfUHSlG-9" value="Объекты с флагом &quot;Было обновлено&quot;" style="text;html=1;align=center;verticalAlign=middle;resizable=0;points=[];autosize=1;strokeColor=none;fillColor=none;" vertex="1" parent="1">
          <mxGeometry x="500" y="270" width="240" height="30" as="geometry" />
        </mxCell>
        <mxCell id="x_8Lw2dfnf2eLFfUHSlG-10" value="Объекты с флагом &quot;Было обновлено&quot;" style="text;html=1;align=center;verticalAlign=middle;resizable=0;points=[];autosize=1;strokeColor=none;fillColor=none;" vertex="1" parent="1">
          <mxGeometry x="500" y="360" width="240" height="30" as="geometry" />
        </mxCell>
        <mxCell id="x_8Lw2dfnf2eLFfUHSlG-11" value="Автотегирование заказа(область - заказ)" style="ellipse;whiteSpace=wrap;html=1;aspect=fixed;" vertex="1" parent="1">
          <mxGeometry x="490" y="-30" width="110" height="110" as="geometry" />
        </mxCell>
        <mxCell id="x_8Lw2dfnf2eLFfUHSlG-12" value="" style="shape=flexArrow;endArrow=classic;html=1;rounded=0;" edge="1" parent="1" source="x_8Lw2dfnf2eLFfUHSlG-11">
          <mxGeometry width="50" height="50" relative="1" as="geometry">
            <mxPoint x="425" y="160" as="sourcePoint" />
            <mxPoint x="545" y="200" as="targetPoint" />
          </mxGeometry>
        </mxCell>
        <mxCell id="x_8Lw2dfnf2eLFfUHSlG-13" value="Полное тегирование (область - все объекты)" style="ellipse;whiteSpace=wrap;html=1;aspect=fixed;" vertex="1" parent="1">
          <mxGeometry x="200" y="-30" width="110" height="110" as="geometry" />
        </mxCell>
        <mxCell id="x_8Lw2dfnf2eLFfUHSlG-14" value="" style="shape=flexArrow;endArrow=classic;html=1;rounded=0;" edge="1" parent="1" source="x_8Lw2dfnf2eLFfUHSlG-13">
          <mxGeometry width="50" height="50" relative="1" as="geometry">
            <mxPoint x="135" y="160" as="sourcePoint" />
            <mxPoint x="255" y="200" as="targetPoint" />
          </mxGeometry>
        </mxCell>
        <mxCell id="x_8Lw2dfnf2eLFfUHSlG-15" value="" style="endArrow=classic;html=1;rounded=0;" edge="1" parent="1">
          <mxGeometry width="50" height="50" relative="1" as="geometry">
            <mxPoint x="40" y="600" as="sourcePoint" />
            <mxPoint x="720" y="600" as="targetPoint" />
          </mxGeometry>
        </mxCell>
        <mxCell id="x_8Lw2dfnf2eLFfUHSlG-17" value="3 объекта" style="text;html=1;align=center;verticalAlign=middle;whiteSpace=wrap;rounded=0;" vertex="1" parent="1">
          <mxGeometry x="40" y="620" width="60" height="30" as="geometry" />
        </mxCell>
        <mxCell id="x_8Lw2dfnf2eLFfUHSlG-18" value="сквизинг для 3х" style="whiteSpace=wrap;html=1;aspect=fixed;" vertex="1" parent="1">
          <mxGeometry x="265" y="630" width="80" height="80" as="geometry" />
        </mxCell>
        <mxCell id="x_8Lw2dfnf2eLFfUHSlG-19" value="33 объекта" style="text;html=1;align=center;verticalAlign=middle;whiteSpace=wrap;rounded=0;" vertex="1" parent="1">
          <mxGeometry x="130" y="620" width="60" height="30" as="geometry" />
        </mxCell>
        <mxCell id="x_8Lw2dfnf2eLFfUHSlG-20" value="сквизинг для 33х" style="whiteSpace=wrap;html=1;aspect=fixed;" vertex="1" parent="1">
          <mxGeometry x="380" y="630" width="80" height="80" as="geometry" />
        </mxCell>
        <mxCell id="x_8Lw2dfnf2eLFfUHSlG-21" value="Процесс снятия флага для 3х" style="ellipse;whiteSpace=wrap;html=1;aspect=fixed;" vertex="1" parent="1">
          <mxGeometry x="490" y="630" width="80" height="80" as="geometry" />
        </mxCell>
        <mxCell id="x_8Lw2dfnf2eLFfUHSlG-22" value="Процесс снятия флага для 33х" style="ellipse;whiteSpace=wrap;html=1;aspect=fixed;" vertex="1" parent="1">
          <mxGeometry x="600" y="630" width="80" height="80" as="geometry" />
        </mxCell>
        <mxCell id="x_8Lw2dfnf2eLFfUHSlG-23" value="Обработает&lt;div&gt;36&lt;/div&gt;" style="text;html=1;align=center;verticalAlign=middle;whiteSpace=wrap;rounded=0;" vertex="1" parent="1">
          <mxGeometry x="275" y="730" width="60" height="30" as="geometry" />
        </mxCell>
        <mxCell id="x_8Lw2dfnf2eLFfUHSlG-24" value="Обработает&lt;div&gt;36&lt;/div&gt;" style="text;html=1;align=center;verticalAlign=middle;whiteSpace=wrap;rounded=0;" vertex="1" parent="1">
          <mxGeometry x="384" y="730" width="60" height="30" as="geometry" />
        </mxCell>
        <mxCell id="x_8Lw2dfnf2eLFfUHSlG-25" value="Снимет 36" style="text;html=1;align=center;verticalAlign=middle;whiteSpace=wrap;rounded=0;" vertex="1" parent="1">
          <mxGeometry x="500" y="730" width="60" height="30" as="geometry" />
        </mxCell>
        <mxCell id="x_8Lw2dfnf2eLFfUHSlG-26" value="Снимет 0" style="text;html=1;align=center;verticalAlign=middle;whiteSpace=wrap;rounded=0;" vertex="1" parent="1">
          <mxGeometry x="610" y="730" width="60" height="30" as="geometry" />
        </mxCell>
        <mxCell id="x_8Lw2dfnf2eLFfUHSlG-27" value="" style="endArrow=classic;html=1;rounded=0;" edge="1" parent="1">
          <mxGeometry width="50" height="50" relative="1" as="geometry">
            <mxPoint x="40" y="840" as="sourcePoint" />
            <mxPoint x="720" y="840" as="targetPoint" />
          </mxGeometry>
        </mxCell>
        <mxCell id="x_8Lw2dfnf2eLFfUHSlG-28" value="3 объекта" style="text;html=1;align=center;verticalAlign=middle;whiteSpace=wrap;rounded=0;" vertex="1" parent="1">
          <mxGeometry x="40" y="860" width="60" height="30" as="geometry" />
        </mxCell>
        <mxCell id="x_8Lw2dfnf2eLFfUHSlG-29" value="сквизинг для 3х" style="whiteSpace=wrap;html=1;aspect=fixed;" vertex="1" parent="1">
          <mxGeometry x="265" y="870" width="80" height="80" as="geometry" />
        </mxCell>
        <mxCell id="x_8Lw2dfnf2eLFfUHSlG-30" value="33 объекта" style="text;html=1;align=center;verticalAlign=middle;whiteSpace=wrap;rounded=0;" vertex="1" parent="1">
          <mxGeometry x="130" y="860" width="60" height="30" as="geometry" />
        </mxCell>
        <mxCell id="x_8Lw2dfnf2eLFfUHSlG-31" value="сквизинг для 33х" style="whiteSpace=wrap;html=1;aspect=fixed;" vertex="1" parent="1">
          <mxGeometry x="500" y="870" width="80" height="80" as="geometry" />
        </mxCell>
        <mxCell id="x_8Lw2dfnf2eLFfUHSlG-32" value="Процесс снятия флага для 3х" style="ellipse;whiteSpace=wrap;html=1;aspect=fixed;" vertex="1" parent="1">
          <mxGeometry x="390" y="870" width="80" height="80" as="geometry" />
        </mxCell>
        <mxCell id="x_8Lw2dfnf2eLFfUHSlG-33" value="Процесс снятия флага для 33х" style="ellipse;whiteSpace=wrap;html=1;aspect=fixed;" vertex="1" parent="1">
          <mxGeometry x="600" y="870" width="80" height="80" as="geometry" />
        </mxCell>
        <mxCell id="x_8Lw2dfnf2eLFfUHSlG-34" value="Обработает&lt;div&gt;3&lt;/div&gt;" style="text;html=1;align=center;verticalAlign=middle;whiteSpace=wrap;rounded=0;" vertex="1" parent="1">
          <mxGeometry x="275" y="970" width="60" height="30" as="geometry" />
        </mxCell>
        <mxCell id="x_8Lw2dfnf2eLFfUHSlG-35" value="Обработает&lt;div&gt;33&lt;/div&gt;" style="text;html=1;align=center;verticalAlign=middle;whiteSpace=wrap;rounded=0;" vertex="1" parent="1">
          <mxGeometry x="504" y="970" width="60" height="30" as="geometry" />
        </mxCell>
        <mxCell id="x_8Lw2dfnf2eLFfUHSlG-36" value="Снимет 3" style="text;html=1;align=center;verticalAlign=middle;whiteSpace=wrap;rounded=0;" vertex="1" parent="1">
          <mxGeometry x="400" y="970" width="60" height="30" as="geometry" />
        </mxCell>
        <mxCell id="x_8Lw2dfnf2eLFfUHSlG-37" value="Снимет 33" style="text;html=1;align=center;verticalAlign=middle;whiteSpace=wrap;rounded=0;" vertex="1" parent="1">
          <mxGeometry x="610" y="970" width="60" height="30" as="geometry" />
        </mxCell>
        <mxCell id="x_8Lw2dfnf2eLFfUHSlG-38" value="Вариант 1" style="text;html=1;align=center;verticalAlign=middle;whiteSpace=wrap;rounded=0;" vertex="1" parent="1">
          <mxGeometry x="40" y="530" width="60" height="30" as="geometry" />
        </mxCell>
        <mxCell id="x_8Lw2dfnf2eLFfUHSlG-39" value="Вариант 2" style="text;html=1;align=center;verticalAlign=middle;whiteSpace=wrap;rounded=0;" vertex="1" parent="1">
          <mxGeometry x="40" y="780" width="60" height="30" as="geometry" />
        </mxCell>
        <mxCell id="x_8Lw2dfnf2eLFfUHSlG-40" value="Тегирование.&amp;nbsp;&lt;div&gt;Затронутые объекты вычисляются и их ИД передается дальше.&amp;nbsp;&lt;span style=&quot;text-wrap: nowrap; background-color: initial;&quot;&gt;&quot;Было обновлено&quot; также есть, но не используется&lt;/span&gt;&lt;/div&gt;" style="rounded=0;whiteSpace=wrap;html=1;" vertex="1" parent="1">
          <mxGeometry x="960" y="190" width="480" height="60" as="geometry" />
        </mxCell>
        <mxCell id="x_8Lw2dfnf2eLFfUHSlG-41" value="Процесс снятия галки" style="rounded=0;whiteSpace=wrap;html=1;" vertex="1" parent="1">
          <mxGeometry x="960" y="390" width="480" height="60" as="geometry" />
        </mxCell>
        <mxCell id="x_8Lw2dfnf2eLFfUHSlG-42" value="Сквизинг" style="rounded=0;whiteSpace=wrap;html=1;" vertex="1" parent="1">
          <mxGeometry x="960" y="290" width="220" height="60" as="geometry" />
        </mxCell>
        <mxCell id="x_8Lw2dfnf2eLFfUHSlG-43" value="ACL" style="rounded=0;whiteSpace=wrap;html=1;" vertex="1" parent="1">
          <mxGeometry x="1220" y="290" width="220" height="60" as="geometry" />
        </mxCell>
        <mxCell id="x_8Lw2dfnf2eLFfUHSlG-44" value="" style="shape=flexArrow;endArrow=classic;html=1;rounded=0;" edge="1" parent="1" source="x_8Lw2dfnf2eLFfUHSlG-40" target="x_8Lw2dfnf2eLFfUHSlG-42">
          <mxGeometry width="50" height="50" relative="1" as="geometry">
            <mxPoint x="870" y="320" as="sourcePoint" />
            <mxPoint x="920" y="270" as="targetPoint" />
          </mxGeometry>
        </mxCell>
        <mxCell id="x_8Lw2dfnf2eLFfUHSlG-45" value="" style="shape=flexArrow;endArrow=classic;html=1;rounded=0;" edge="1" parent="1" source="x_8Lw2dfnf2eLFfUHSlG-40" target="x_8Lw2dfnf2eLFfUHSlG-43">
          <mxGeometry width="50" height="50" relative="1" as="geometry">
            <mxPoint x="1171" y="260" as="sourcePoint" />
            <mxPoint x="1119" y="300" as="targetPoint" />
          </mxGeometry>
        </mxCell>
        <mxCell id="x_8Lw2dfnf2eLFfUHSlG-46" value="" style="shape=flexArrow;endArrow=classic;html=1;rounded=0;" edge="1" parent="1" source="x_8Lw2dfnf2eLFfUHSlG-43" target="x_8Lw2dfnf2eLFfUHSlG-41">
          <mxGeometry width="50" height="50" relative="1" as="geometry">
            <mxPoint x="1181" y="270" as="sourcePoint" />
            <mxPoint x="1129" y="310" as="targetPoint" />
          </mxGeometry>
        </mxCell>
        <mxCell id="x_8Lw2dfnf2eLFfUHSlG-47" value="" style="shape=flexArrow;endArrow=classic;html=1;rounded=0;" edge="1" parent="1" source="x_8Lw2dfnf2eLFfUHSlG-42" target="x_8Lw2dfnf2eLFfUHSlG-41">
          <mxGeometry width="50" height="50" relative="1" as="geometry">
            <mxPoint x="1191" y="280" as="sourcePoint" />
            <mxPoint x="1139" y="320" as="targetPoint" />
          </mxGeometry>
        </mxCell>
        <mxCell id="x_8Lw2dfnf2eLFfUHSlG-48" value="Перечень объектов" style="text;html=1;align=center;verticalAlign=middle;resizable=0;points=[];autosize=1;strokeColor=none;fillColor=none;" vertex="1" parent="1">
          <mxGeometry x="1304" y="260" width="130" height="30" as="geometry" />
        </mxCell>
        <mxCell id="x_8Lw2dfnf2eLFfUHSlG-49" value="Перечень объектов" style="text;html=1;align=center;verticalAlign=middle;resizable=0;points=[];autosize=1;strokeColor=none;fillColor=none;" vertex="1" parent="1">
          <mxGeometry x="1300" y="350" width="130" height="30" as="geometry" />
        </mxCell>
        <mxCell id="x_8Lw2dfnf2eLFfUHSlG-50" value="Автотегирование заказа(область - заказ)" style="ellipse;whiteSpace=wrap;html=1;aspect=fixed;" vertex="1" parent="1">
          <mxGeometry x="1290" y="-40" width="110" height="110" as="geometry" />
        </mxCell>
        <mxCell id="x_8Lw2dfnf2eLFfUHSlG-51" value="" style="shape=flexArrow;endArrow=classic;html=1;rounded=0;" edge="1" parent="1" source="x_8Lw2dfnf2eLFfUHSlG-50">
          <mxGeometry width="50" height="50" relative="1" as="geometry">
            <mxPoint x="1225" y="150" as="sourcePoint" />
            <mxPoint x="1345" y="190" as="targetPoint" />
          </mxGeometry>
        </mxCell>
        <mxCell id="x_8Lw2dfnf2eLFfUHSlG-52" value="Полное тегирование (область - все объекты)" style="ellipse;whiteSpace=wrap;html=1;aspect=fixed;" vertex="1" parent="1">
          <mxGeometry x="1000" y="-40" width="110" height="110" as="geometry" />
        </mxCell>
        <mxCell id="x_8Lw2dfnf2eLFfUHSlG-53" value="" style="shape=flexArrow;endArrow=classic;html=1;rounded=0;" edge="1" parent="1" source="x_8Lw2dfnf2eLFfUHSlG-52">
          <mxGeometry width="50" height="50" relative="1" as="geometry">
            <mxPoint x="935" y="150" as="sourcePoint" />
            <mxPoint x="1055" y="190" as="targetPoint" />
          </mxGeometry>
        </mxCell>
        <mxCell id="x_8Lw2dfnf2eLFfUHSlG-54" value="" style="endArrow=classic;html=1;rounded=0;" edge="1" parent="1">
          <mxGeometry width="50" height="50" relative="1" as="geometry">
            <mxPoint x="840" y="590" as="sourcePoint" />
            <mxPoint x="1520" y="590" as="targetPoint" />
          </mxGeometry>
        </mxCell>
        <mxCell id="x_8Lw2dfnf2eLFfUHSlG-55" value="3 объекта" style="text;html=1;align=center;verticalAlign=middle;whiteSpace=wrap;rounded=0;" vertex="1" parent="1">
          <mxGeometry x="840" y="610" width="60" height="30" as="geometry" />
        </mxCell>
        <mxCell id="x_8Lw2dfnf2eLFfUHSlG-56" value="сквизинг для 3х" style="whiteSpace=wrap;html=1;aspect=fixed;" vertex="1" parent="1">
          <mxGeometry x="1065" y="620" width="80" height="80" as="geometry" />
        </mxCell>
        <mxCell id="x_8Lw2dfnf2eLFfUHSlG-57" value="33 объекта" style="text;html=1;align=center;verticalAlign=middle;whiteSpace=wrap;rounded=0;" vertex="1" parent="1">
          <mxGeometry x="930" y="610" width="60" height="30" as="geometry" />
        </mxCell>
        <mxCell id="x_8Lw2dfnf2eLFfUHSlG-58" value="сквизинг для 33х" style="whiteSpace=wrap;html=1;aspect=fixed;" vertex="1" parent="1">
          <mxGeometry x="1180" y="620" width="80" height="80" as="geometry" />
        </mxCell>
        <mxCell id="x_8Lw2dfnf2eLFfUHSlG-59" value="Процесс снятия флага для 3х" style="ellipse;whiteSpace=wrap;html=1;aspect=fixed;" vertex="1" parent="1">
          <mxGeometry x="1290" y="620" width="80" height="80" as="geometry" />
        </mxCell>
        <mxCell id="x_8Lw2dfnf2eLFfUHSlG-60" value="Процесс снятия флага для 33х" style="ellipse;whiteSpace=wrap;html=1;aspect=fixed;" vertex="1" parent="1">
          <mxGeometry x="1400" y="620" width="80" height="80" as="geometry" />
        </mxCell>
        <mxCell id="x_8Lw2dfnf2eLFfUHSlG-61" value="Обработает&lt;div&gt;3&lt;/div&gt;" style="text;html=1;align=center;verticalAlign=middle;whiteSpace=wrap;rounded=0;" vertex="1" parent="1">
          <mxGeometry x="1075" y="720" width="60" height="30" as="geometry" />
        </mxCell>
        <mxCell id="x_8Lw2dfnf2eLFfUHSlG-62" value="Обработает&lt;div&gt;33&lt;/div&gt;" style="text;html=1;align=center;verticalAlign=middle;whiteSpace=wrap;rounded=0;" vertex="1" parent="1">
          <mxGeometry x="1184" y="720" width="60" height="30" as="geometry" />
        </mxCell>
        <mxCell id="x_8Lw2dfnf2eLFfUHSlG-63" value="Снимет 3" style="text;html=1;align=center;verticalAlign=middle;whiteSpace=wrap;rounded=0;" vertex="1" parent="1">
          <mxGeometry x="1300" y="720" width="60" height="30" as="geometry" />
        </mxCell>
        <mxCell id="x_8Lw2dfnf2eLFfUHSlG-64" value="Снимет 33" style="text;html=1;align=center;verticalAlign=middle;whiteSpace=wrap;rounded=0;" vertex="1" parent="1">
          <mxGeometry x="1410" y="720" width="60" height="30" as="geometry" />
        </mxCell>
        <mxCell id="x_8Lw2dfnf2eLFfUHSlG-65" value="" style="endArrow=classic;html=1;rounded=0;" edge="1" parent="1">
          <mxGeometry width="50" height="50" relative="1" as="geometry">
            <mxPoint x="840" y="830" as="sourcePoint" />
            <mxPoint x="1520" y="830" as="targetPoint" />
          </mxGeometry>
        </mxCell>
        <mxCell id="x_8Lw2dfnf2eLFfUHSlG-66" value="3 объекта" style="text;html=1;align=center;verticalAlign=middle;whiteSpace=wrap;rounded=0;" vertex="1" parent="1">
          <mxGeometry x="840" y="850" width="60" height="30" as="geometry" />
        </mxCell>
        <mxCell id="x_8Lw2dfnf2eLFfUHSlG-67" value="сквизинг для 3х" style="whiteSpace=wrap;html=1;aspect=fixed;" vertex="1" parent="1">
          <mxGeometry x="1065" y="860" width="80" height="80" as="geometry" />
        </mxCell>
        <mxCell id="x_8Lw2dfnf2eLFfUHSlG-68" value="33 объекта" style="text;html=1;align=center;verticalAlign=middle;whiteSpace=wrap;rounded=0;" vertex="1" parent="1">
          <mxGeometry x="930" y="850" width="60" height="30" as="geometry" />
        </mxCell>
        <mxCell id="x_8Lw2dfnf2eLFfUHSlG-69" value="сквизинг для 33х" style="whiteSpace=wrap;html=1;aspect=fixed;" vertex="1" parent="1">
          <mxGeometry x="1300" y="860" width="80" height="80" as="geometry" />
        </mxCell>
        <mxCell id="x_8Lw2dfnf2eLFfUHSlG-70" value="Процесс снятия флага для 3х" style="ellipse;whiteSpace=wrap;html=1;aspect=fixed;" vertex="1" parent="1">
          <mxGeometry x="1190" y="860" width="80" height="80" as="geometry" />
        </mxCell>
        <mxCell id="x_8Lw2dfnf2eLFfUHSlG-71" value="Процесс снятия флага для 33х" style="ellipse;whiteSpace=wrap;html=1;aspect=fixed;" vertex="1" parent="1">
          <mxGeometry x="1400" y="860" width="80" height="80" as="geometry" />
        </mxCell>
        <mxCell id="x_8Lw2dfnf2eLFfUHSlG-72" value="Обработает&lt;div&gt;3&lt;/div&gt;" style="text;html=1;align=center;verticalAlign=middle;whiteSpace=wrap;rounded=0;" vertex="1" parent="1">
          <mxGeometry x="1075" y="960" width="60" height="30" as="geometry" />
        </mxCell>
        <mxCell id="x_8Lw2dfnf2eLFfUHSlG-73" value="Обработает&lt;div&gt;33&lt;/div&gt;" style="text;html=1;align=center;verticalAlign=middle;whiteSpace=wrap;rounded=0;" vertex="1" parent="1">
          <mxGeometry x="1304" y="960" width="60" height="30" as="geometry" />
        </mxCell>
        <mxCell id="x_8Lw2dfnf2eLFfUHSlG-74" value="Снимет 3" style="text;html=1;align=center;verticalAlign=middle;whiteSpace=wrap;rounded=0;" vertex="1" parent="1">
          <mxGeometry x="1200" y="960" width="60" height="30" as="geometry" />
        </mxCell>
        <mxCell id="x_8Lw2dfnf2eLFfUHSlG-75" value="Снимет 33" style="text;html=1;align=center;verticalAlign=middle;whiteSpace=wrap;rounded=0;" vertex="1" parent="1">
          <mxGeometry x="1410" y="960" width="60" height="30" as="geometry" />
        </mxCell>
        <mxCell id="x_8Lw2dfnf2eLFfUHSlG-76" value="Вариант 1" style="text;html=1;align=center;verticalAlign=middle;whiteSpace=wrap;rounded=0;" vertex="1" parent="1">
          <mxGeometry x="840" y="520" width="60" height="30" as="geometry" />
        </mxCell>
        <mxCell id="x_8Lw2dfnf2eLFfUHSlG-77" value="Вариант 2" style="text;html=1;align=center;verticalAlign=middle;whiteSpace=wrap;rounded=0;" vertex="1" parent="1">
          <mxGeometry x="840" y="770" width="60" height="30" as="geometry" />
        </mxCell>
        <mxCell id="x_8Lw2dfnf2eLFfUHSlG-78" value="Было" style="text;html=1;align=center;verticalAlign=middle;whiteSpace=wrap;rounded=0;" vertex="1" parent="1">
          <mxGeometry x="370" y="-110" width="60" height="30" as="geometry" />
        </mxCell>
        <mxCell id="x_8Lw2dfnf2eLFfUHSlG-79" value="Стало(асинхронность)&lt;div&gt;4 задачи на источник&lt;/div&gt;&lt;div&gt;Если 3 источника, то 12 задач&lt;/div&gt;" style="text;html=1;align=center;verticalAlign=middle;whiteSpace=wrap;rounded=0;" vertex="1" parent="1">
          <mxGeometry x="1125" y="-140" width="210" height="60" as="geometry" />
        </mxCell>
        <mxCell id="x_8Lw2dfnf2eLFfUHSlG-80" value="Тегирование.&amp;nbsp;&lt;div&gt;Затронутые объекты вычисляются и их ИД передается дальше.&amp;nbsp;&lt;span style=&quot;text-wrap: nowrap; background-color: initial;&quot;&gt;&quot;Было обновлено&quot; также есть, но не используется&lt;/span&gt;&lt;/div&gt;" style="rounded=0;whiteSpace=wrap;html=1;" vertex="1" parent="1">
          <mxGeometry x="1780" y="190" width="480" height="60" as="geometry" />
        </mxCell>
        <mxCell id="x_8Lw2dfnf2eLFfUHSlG-81" value="Процесс снятия галки" style="rounded=0;whiteSpace=wrap;html=1;" vertex="1" parent="1">
          <mxGeometry x="1780" y="555" width="480" height="60" as="geometry" />
        </mxCell>
        <mxCell id="x_8Lw2dfnf2eLFfUHSlG-82" value="Сквизинг" style="rounded=0;whiteSpace=wrap;html=1;" vertex="1" parent="1">
          <mxGeometry x="1910" y="300" width="220" height="60" as="geometry" />
        </mxCell>
        <mxCell id="x_8Lw2dfnf2eLFfUHSlG-83" value="ACL" style="rounded=0;whiteSpace=wrap;html=1;" vertex="1" parent="1">
          <mxGeometry x="1910" y="420" width="220" height="60" as="geometry" />
        </mxCell>
        <mxCell id="x_8Lw2dfnf2eLFfUHSlG-84" value="" style="shape=flexArrow;endArrow=classic;html=1;rounded=0;" edge="1" parent="1" source="x_8Lw2dfnf2eLFfUHSlG-80" target="x_8Lw2dfnf2eLFfUHSlG-82">
          <mxGeometry width="50" height="50" relative="1" as="geometry">
            <mxPoint x="1690" y="320" as="sourcePoint" />
            <mxPoint x="1740" y="270" as="targetPoint" />
          </mxGeometry>
        </mxCell>
        <mxCell id="x_8Lw2dfnf2eLFfUHSlG-85" value="" style="shape=flexArrow;endArrow=classic;html=1;rounded=0;" edge="1" parent="1" source="x_8Lw2dfnf2eLFfUHSlG-82" target="x_8Lw2dfnf2eLFfUHSlG-83">
          <mxGeometry width="50" height="50" relative="1" as="geometry">
            <mxPoint x="1991" y="260" as="sourcePoint" />
            <mxPoint x="1939" y="300" as="targetPoint" />
          </mxGeometry>
        </mxCell>
        <mxCell id="x_8Lw2dfnf2eLFfUHSlG-87" value="" style="shape=flexArrow;endArrow=classic;html=1;rounded=0;" edge="1" parent="1" source="x_8Lw2dfnf2eLFfUHSlG-83" target="x_8Lw2dfnf2eLFfUHSlG-81">
          <mxGeometry width="50" height="50" relative="1" as="geometry">
            <mxPoint x="2020" y="450" as="sourcePoint" />
            <mxPoint x="1959" y="320" as="targetPoint" />
          </mxGeometry>
        </mxCell>
        <mxCell id="x_8Lw2dfnf2eLFfUHSlG-88" value="Перечень объектов" style="text;html=1;align=center;verticalAlign=middle;resizable=0;points=[];autosize=1;strokeColor=none;fillColor=none;" vertex="1" parent="1">
          <mxGeometry x="2050" y="260" width="130" height="30" as="geometry" />
        </mxCell>
        <mxCell id="x_8Lw2dfnf2eLFfUHSlG-89" value="Перечень объектов" style="text;html=1;align=center;verticalAlign=middle;resizable=0;points=[];autosize=1;strokeColor=none;fillColor=none;" vertex="1" parent="1">
          <mxGeometry x="2050" y="370" width="130" height="30" as="geometry" />
        </mxCell>
        <mxCell id="x_8Lw2dfnf2eLFfUHSlG-90" value="Автотегирование заказа(область - заказ)" style="ellipse;whiteSpace=wrap;html=1;aspect=fixed;" vertex="1" parent="1">
          <mxGeometry x="2110" y="-40" width="110" height="110" as="geometry" />
        </mxCell>
        <mxCell id="x_8Lw2dfnf2eLFfUHSlG-91" value="" style="shape=flexArrow;endArrow=classic;html=1;rounded=0;" edge="1" parent="1" source="x_8Lw2dfnf2eLFfUHSlG-90">
          <mxGeometry width="50" height="50" relative="1" as="geometry">
            <mxPoint x="2045" y="150" as="sourcePoint" />
            <mxPoint x="2165" y="190" as="targetPoint" />
          </mxGeometry>
        </mxCell>
        <mxCell id="x_8Lw2dfnf2eLFfUHSlG-92" value="Полное тегирование (область - все объекты)" style="ellipse;whiteSpace=wrap;html=1;aspect=fixed;" vertex="1" parent="1">
          <mxGeometry x="1820" y="-40" width="110" height="110" as="geometry" />
        </mxCell>
        <mxCell id="x_8Lw2dfnf2eLFfUHSlG-93" value="" style="shape=flexArrow;endArrow=classic;html=1;rounded=0;" edge="1" parent="1" source="x_8Lw2dfnf2eLFfUHSlG-92">
          <mxGeometry width="50" height="50" relative="1" as="geometry">
            <mxPoint x="1755" y="150" as="sourcePoint" />
            <mxPoint x="1875" y="190" as="targetPoint" />
          </mxGeometry>
        </mxCell>
        <mxCell id="x_8Lw2dfnf2eLFfUHSlG-119" value="Стало(синхронность)&lt;div&gt;1 задачи на источник&lt;/div&gt;&lt;div&gt;Если 3 источника, то 3 задачи&lt;/div&gt;" style="text;html=1;align=center;verticalAlign=middle;whiteSpace=wrap;rounded=0;" vertex="1" parent="1">
          <mxGeometry x="1929" y="-140" width="210" height="60" as="geometry" />
        </mxCell>
      </root>
    </mxGraphModel>
  </diagram>
</mxfile>
